HIERARCHY
ROOT Hips
{
  OFFSET 5.80788e-005 67.184 3.4734
  CHANNELS 6 Xposition Yposition Zposition Zrotation Xrotation Yrotation
  JOINT Chest
  {
    OFFSET 0 8.7983 -4.7612
    CHANNELS 6 Xposition Yposition Zposition Zrotation Xrotation Yrotation
    JOINT Chest2
    {
      OFFSET 0 8.0291 0.4195
      CHANNELS 6 Xposition Yposition Zposition Zrotation Xrotation Yrotation
      JOINT Chest3
      {
        OFFSET 0 9.9351 -2.2114
        CHANNELS 6 Xposition Yposition Zposition Zrotation Xrotation Yrotation
        JOINT Neck
        {
          OFFSET 0 22.3885 -0.4656
          CHANNELS 6 Xposition Yposition Zposition Zrotation Xrotation Yrotation
          JOINT Head
          {
            OFFSET -0.0001 12.643 3.4389
            CHANNELS 6 Xposition Yposition Zposition Zrotation Xrotation Yrotation
            End Site
            {
              OFFSET 0.0001 17.6655 0.5274
            }
          }
        }
        JOINT LeftCollar
        {
          OFFSET 2.2603 21.606 7.4023
          CHANNELS 6 Xposition Yposition Zposition Zrotation Xrotation Yrotation
          JOINT LeftShoulder
          {
            OFFSET 13.5163 -1.1332 -5.0146
            CHANNELS 6 Xposition Yposition Zposition Zrotation Xrotation Yrotation
            JOINT LeftElbow
            {
              OFFSET -0.0995 -28.05 -0.2431
              CHANNELS 6 Xposition Yposition Zposition Zrotation Xrotation Yrotation
              JOINT LeftWrist
              {
                OFFSET 0.0679 -23.3996 -0.1402
                CHANNELS 6 Xposition Yposition Zposition Zrotation Xrotation Yrotation
                JOINT LeftFinger1
                {
                  OFFSET 0.7932 -9.069 2.5189
                  CHANNELS 6 Xposition Yposition Zposition Zrotation Xrotation Yrotation
                  JOINT LeftFinger11
                  {
                    OFFSET -0.8272 -3.3923 0.5977
                    CHANNELS 6 Xposition Yposition Zposition Zrotation Xrotation Yrotation
                    JOINT LeftFinger12
                    {
                      OFFSET -0.5649 -2.3158 0.4082
                      CHANNELS 6 Xposition Yposition Zposition Zrotation Xrotation Yrotation
                      End Site
                      {
                        OFFSET -0.4919 -1.6479 0.2673
                      }
                    }
                  }
                }
                JOINT LeftFinger2
                {
                  OFFSET 0.9159 -9.2044 0.2193
                  CHANNELS 6 Xposition Yposition Zposition Zrotation Xrotation Yrotation
                  JOINT LeftFinger21
                  {
                    OFFSET 0.0117 -4.1944 -0.0248
                    CHANNELS 6 Xposition Yposition Zposition Zrotation Xrotation Yrotation
                    JOINT LeftFinger22
                    {
                      OFFSET 0.0071 -2.3249 -0.0142
                      CHANNELS 6 Xposition Yposition Zposition Zrotation Xrotation Yrotation
                      End Site
                      {
                        OFFSET -0.1475 -2.0882 0.0028
                      }
                    }
                  }
                }
                JOINT LeftFinger3
                {
                  OFFSET 0.6113 -8.7231 -2.0637
                  CHANNELS 6 Xposition Yposition Zposition Zrotation Xrotation Yrotation
                  JOINT LeftFinger31
                  {
                    OFFSET -0.1927 -3.8059 -0.2383
                    CHANNELS 6 Xposition Yposition Zposition Zrotation Xrotation Yrotation
                    JOINT LeftFinger32
                    {
                      OFFSET -0.1091 -2.1688 -0.1362
                      CHANNELS 6 Xposition Yposition Zposition Zrotation Xrotation Yrotation
                      End Site
                      {
                        OFFSET -0.2358 -1.9176 -0.0906
                      }
                    }
                  }
                }
                JOINT LeftFinger4
                {
                  OFFSET -0.6151 -8.0947 -3.5641
                  CHANNELS 6 Xposition Yposition Zposition Zrotation Xrotation Yrotation
                  JOINT LeftFinger41
                  {
                    OFFSET -0.4882 -2.341 -0.6462
                    CHANNELS 6 Xposition Yposition Zposition Zrotation Xrotation Yrotation
                    JOINT LeftFinger42
                    {
                      OFFSET -0.3575 -1.7167 -0.4742
                      CHANNELS 6 Xposition Yposition Zposition Zrotation Xrotation Yrotation
                      End Site
                      {
                        OFFSET -0.4187 -1.5237 -0.3496
                      }
                    }
                  }
                }
                JOINT LeftFinger0
                {
                  OFFSET -1.42 -1.8761 1.4223
                  CHANNELS 6 Xposition Yposition Zposition Zrotation Xrotation Yrotation
                  JOINT LeftFinger01
                  {
                    OFFSET -1.1471 -3.4929 2.6334
                    CHANNELS 6 Xposition Yposition Zposition Zrotation Xrotation Yrotation
                    JOINT LeftFinger02
                    {
                      OFFSET -0.823 -2.3 1.6571
                      CHANNELS 6 Xposition Yposition Zposition Zrotation Xrotation Yrotation
                      End Site
                      {
                        OFFSET -0.5822 -1.6914 1.1582
                      }
                    }
                  }
                }
              }
            }
          }
        }
        JOINT RightCollar
        {
          OFFSET -2.2603 21.606 7.4023
          CHANNELS 6 Xposition Yposition Zposition Zrotation Xrotation Yrotation
          JOINT RightShoulder
          {
            OFFSET -13.5187 -1.1334 -5.0155
            CHANNELS 6 Xposition Yposition Zposition Zrotation Xrotation Yrotation
            JOINT RightElbow
            {
              OFFSET 0.0994 -28.0499 -0.2431
              CHANNELS 6 Xposition Yposition Zposition Zrotation Xrotation Yrotation
              JOINT RightWrist
              {
                OFFSET -0.0679 -23.3996 -0.1402
                CHANNELS 6 Xposition Yposition Zposition Zrotation Xrotation Yrotation
                JOINT RightFinger1
                {
                  OFFSET -0.7932 -9.0691 2.5189
                  CHANNELS 6 Xposition Yposition Zposition Zrotation Xrotation Yrotation
                  JOINT RightFinger11
                  {
                    OFFSET 0.8272 -3.3923 0.5977
                    CHANNELS 6 Xposition Yposition Zposition Zrotation Xrotation Yrotation
                    JOINT RightFinger12
                    {
                      OFFSET 0.565 -2.3158 0.4082
                      CHANNELS 6 Xposition Yposition Zposition Zrotation Xrotation Yrotation
                      End Site
                      {
                        OFFSET 0.4919 -1.6479 0.2673
                      }
                    }
                  }
                }
                JOINT RightFinger2
                {
                  OFFSET -0.916 -9.2044 0.2193
                  CHANNELS 6 Xposition Yposition Zposition Zrotation Xrotation Yrotation
                  JOINT RightFinger21
                  {
                    OFFSET -0.0117 -4.1944 -0.0248
                    CHANNELS 6 Xposition Yposition Zposition Zrotation Xrotation Yrotation
                    JOINT RightFinger22
                    {
                      OFFSET -0.0071 -2.3249 -0.0142
                      CHANNELS 6 Xposition Yposition Zposition Zrotation Xrotation Yrotation
                      End Site
                      {
                        OFFSET 0.1475 -2.0882 0.0028
                      }
                    }
                  }
                }
                JOINT RightFinger3
                {
                  OFFSET -0.6113 -8.7231 -2.0637
                  CHANNELS 6 Xposition Yposition Zposition Zrotation Xrotation Yrotation
                  JOINT RightFinger31
                  {
                    OFFSET 0.1927 -3.8059 -0.2383
                    CHANNELS 6 Xposition Yposition Zposition Zrotation Xrotation Yrotation
                    JOINT RightFinger32
                    {
                      OFFSET 0.1091 -2.1688 -0.1362
                      CHANNELS 6 Xposition Yposition Zposition Zrotation Xrotation Yrotation
                      End Site
                      {
                        OFFSET 0.2358 -1.9176 -0.0906
                      }
                    }
                  }
                }
                JOINT RightFinger4
                {
                  OFFSET 0.6151 -8.0947 -3.564
                  CHANNELS 6 Xposition Yposition Zposition Zrotation Xrotation Yrotation
                  JOINT RightFinger41
                  {
                    OFFSET 0.4882 -2.341 -0.6462
                    CHANNELS 6 Xposition Yposition Zposition Zrotation Xrotation Yrotation
                    JOINT RightFinger42
                    {
                      OFFSET 0.3574 -1.7166 -0.4742
                      CHANNELS 6 Xposition Yposition Zposition Zrotation Xrotation Yrotation
                      End Site
                      {
                        OFFSET 0.4187 -1.5237 -0.3496
                      }
                    }
                  }
                }
                JOINT RightFinger0
                {
                  OFFSET 1.4199 -1.8761 1.4221
                  CHANNELS 6 Xposition Yposition Zposition Zrotation Xrotation Yrotation
                  JOINT RightFinger01
                  {
                    OFFSET 1.1472 -3.4929 2.6336
                    CHANNELS 6 Xposition Yposition Zposition Zrotation Xrotation Yrotation
                    JOINT RightFinger02
                    {
                      OFFSET 0.8229 -2.3 1.6571
                      CHANNELS 6 Xposition Yposition Zposition Zrotation Xrotation Yrotation
                      End Site
                      {
                        OFFSET 0.5822 -1.6914 1.1582
                      }
                    }
                  }
                }
              }
            }
          }
        }
      }
    }
  }
  JOINT RightHip
  {
    OFFSET -9.412 3.9771 -0.7758
    CHANNELS 6 Xposition Yposition Zposition Zrotation Xrotation Yrotation
    JOINT RightKnee
    {
      OFFSET -0.7531 -40.938 0
      CHANNELS 6 Xposition Yposition Zposition Zrotation Xrotation Yrotation
      JOINT RightAnkle
      {
        OFFSET 0 -40.1986 0
        CHANNELS 6 Xposition Yposition Zposition Zrotation Xrotation Yrotation
        JOINT RightToe
        {
          OFFSET 0 -4.4182 9.239
          CHANNELS 6 Xposition Yposition Zposition Zrotation Xrotation Yrotation
          End Site
          {
            OFFSET 0 0 6.1981
          }
        }
      }
    }
  }
  JOINT LeftHip
  {
    OFFSET 9.4119 3.9773 -0.7758
    CHANNELS 6 Xposition Yposition Zposition Zrotation Xrotation Yrotation
    JOINT LeftKnee
    {
      OFFSET 0.7532 -40.9383 0
      CHANNELS 6 Xposition Yposition Zposition Zrotation Xrotation Yrotation
      JOINT LeftAnkle
      {
        OFFSET 0 -40.1986 0
        CHANNELS 6 Xposition Yposition Zposition Zrotation Xrotation Yrotation
        JOINT LeftToe
        {
          OFFSET 0 -4.4182 9.239
          CHANNELS 6 Xposition Yposition Zposition Zrotation Xrotation Yrotation
          End Site
          {
            OFFSET 0 0 6.1981
          }
        }
      }
    }
  }
}
MOTION
Frames:	4
Frame Time:	0.0333333
39.981 38.1814 18.3371 -179.997 75.0068 3.9923e-007 7.10543e-015 8.7983 -4.7612 0.0518956 9.30328 1.94 0 8.0291 0.4195 -0.22495 18.6029 3.95119 0 9.9351 -2.2114 -0.224954 18.6029 3.95121 -7.10543e-015 22.3885 -0.4656 -9.9216 3.48059 11.964 -0.0001 12.643 3.4389 -7.85202 -20.8263 -9.12312 2.2603 21.606 7.4023 -12.1289 -17.2551 -35.3736 13.5163 -1.1332 -5.0146 82.0789 11.8279 24.6747 -0.0995 -28.05 -0.2431 -80.2615 0.520345 -83.8165 0.0679 -23.3996 -0.1402 -7.77776 36.5644 11.1357 0.7932 -9.069 2.5189 7.95139e-016 -3.18055e-015 -0 -0.8272 -3.3923 0.5977 1.59028e-015 6.36111e-015 2.78299e-015 -0.5649 -2.3158 0.4082 3.18055e-015 3.18055e-015 3.57812e-015 0.9159 -9.2044 0.2193 7.95139e-016 -3.18055e-015 -0 0.0117 -4.1944 -0.0248 -0.012816 0.00232429 8.3433e-005 0.0071 -2.3249 -0.0142 -7.95139e-016 3.18055e-015 1.59028e-015 0.6113 -8.7231 -2.0637 7.95139e-016 -3.18055e-015 -0 -0.1927 -3.8059 -0.2383 -0.0160436 0.0030002 0.00086489 -0.1091 -2.1688 -0.1362 8.97758e-006 -5.64194e-006 -4.19042e-006 -0.6151 -8.0947 -3.5641 7.95139e-016 -3.18055e-015 -0 -0.4882 -2.341 -0.6462 -0.0125175 0.00309772 0.00280969 -0.3575 -1.7167 -0.4742 7.95139e-016 3.18055e-015 7.95139e-016 -1.42 -1.8761 1.4223 7.95139e-016 -3.18055e-015 -0 -1.1471 -3.4929 2.6334 1.59028e-015 6.36111e-015 2.78299e-015 -0.823 -2.3 1.6571 3.18055e-015 3.18055e-015 3.57812e-015 -2.2603 21.606 7.4023 6.71349 -6.36678 8.5596 -13.5187 -1.1334 -5.0155 -77.2431 -23.4982 -21.8587 0.0994 -28.0499 -0.2431 51.4109 -37.321 30.0376 -0.0679 -23.3996 -0.1402 28.8891 4.95235 -42.0936 -0.7932 -9.0691 2.5189 0 0 -5.56597e-015 0.827199 -3.3923 0.5977 -6.36111e-015 -3.18055e-015 7.95139e-016 0.565 -2.3158 0.4082 1.59028e-015 6.36111e-015 -1.59028e-015 -0.915999 -9.2044 0.2193 0 0 -5.56597e-015 -0.0117 -4.1944 -0.0248 0.0129152 0.00233298 -8.99325e-005 -0.0071 -2.3249 -0.0142 -4.48102e-007 -4.2694e-006 4.98336e-006 -0.6113 -8.7231 -2.0637 0 0 -5.56597e-015 0.1927 -3.8059 -0.2383 0.0164069 0.00305985 -0.000880534 0.1091 -2.1688 -0.1362 3.18055e-015 3.18055e-015 -7.15625e-015 0.6151 -8.0947 -3.564 0 0 -5.56597e-015 0.4882 -2.341 -0.6462 0.0144646 0.00367254 -0.00323959 0.3574 -1.7166 -0.4742 6.36111e-015 0 3.18055e-015 1.4199 -1.8761 1.4221 0 0 -5.56597e-015 1.1472 -3.4929 2.6336 -6.36111e-015 -3.18055e-015 7.95139e-016 0.822899 -2.3 1.6571 1.59028e-015 6.36111e-015 -1.59028e-015 -9.412 3.9771 -0.7758 -39.5775 18.6269 -26.2739 -0.7531 -40.938 0 -70.1042 39.8908 71.3192 -7.10543e-015 -40.1986 0 33.2696 12.6877 9.83674 -1.42109e-014 -4.4182 9.239 3.47314e-006 -1.56618e-006 1.48402e-006 9.4119 3.9773 -0.7758 73.2196 -52.6458 125.543 0.7532 -40.9383 -3.55272e-015 72.0684 39.7229 -72.612 0 -40.1986 0 -4.30659 21.5609 2.91809 0 -4.4182 9.23901 1.59028e-015 0 1.21259e-014 
39.9801 38.1823 18.337 -179.997 75.0068 -1.08771e-007 0 8.7983 -4.7612 0.0459989 9.31607 1.93506 0 8.0291 0.4195 -0.236635 18.6283 3.94236 0 9.9351 -2.2114 -0.236635 18.6283 3.94236 0 22.3885 -0.4656 -9.9019 3.49338 11.9052 -0.0001 12.643 3.4389 -7.67361 -20.6241 -9.05895 2.2603 21.606 7.4023 -11.5583 -17.7335 -35.4746 13.5163 -1.1332 -5.0146 82.079 11.8282 24.6747 -0.0995 -28.05 -0.2431 -80.7051 0.506094 -83.8403 0.0679 -23.3996 -0.1402 -7.45447 36.6998 11.5601 0.7932 -9.069 2.5189 -1.59028e-015 9.54166e-015 3.57812e-015 -0.8272 -3.3923 0.5977 -2.38542e-015 3.18055e-015 3.57812e-015 -0.5649 -2.3158 0.4082 -7.95139e-016 3.18055e-015 2.78299e-015 0.9159 -9.2044 0.2193 -1.59028e-015 9.54166e-015 3.57812e-015 0.0117 -4.1944 -0.0248 -0.0128392 0.00232777 8.50561e-005 0.0071 -2.3249 -0.0142 -7.95139e-016 -1.90833e-014 7.95139e-016 0.6113 -8.7231 -2.0637 -1.59028e-015 9.54166e-015 3.57812e-015 -0.1927 -3.8059 -0.2383 -0.016052 0.00299184 0.000850136 -0.1091 -2.1688 -0.1362 -7.95139e-016 -3.18055e-015 -2.78299e-015 -0.6151 -8.0947 -3.5641 -1.59028e-015 9.54166e-015 3.57812e-015 -0.4882 -2.341 -0.6462 -0.0126344 0.00312865 0.00283164 -0.3575 -1.7167 -0.4742 5.56597e-015 6.36111e-015 -1.19271e-014 -1.42 -1.8761 1.4223 -1.59028e-015 9.54166e-015 3.57812e-015 -1.1471 -3.4929 2.6334 -2.38542e-015 3.18055e-015 3.57812e-015 -0.823 -2.3 1.6571 -7.95139e-016 3.18055e-015 2.78299e-015 -2.2603 21.606 7.4023 6.23044 -6.89358 8.32457 -13.5187 -1.1334 -5.0155 -77.2431 -23.4982 -21.8587 0.0994 -28.0499 -0.2431 51.6827 -37.4252 30.2149 -0.0679 -23.3996 -0.1402 28.6025 4.53635 -42.38 -0.7932 -9.0691 2.5189 1.76556e-031 3.18055e-015 -3.18055e-015 0.8272 -3.3923 0.5977 6.32425e-006 -4.47549e-006 7.15615e-006 0.565 -2.3158 0.4082 1.59028e-015 -3.18055e-015 -0 -0.916 -9.2044 0.2193 1.76556e-031 3.18055e-015 -3.18055e-015 -0.0117 -4.1944 -0.0248 0.0129037 0.00230369 -7.83516e-005 -0.0071 -2.3249 -0.0142 0 0 -3.18055e-015 -0.6113 -8.7231 -2.0637 1.76556e-031 3.18055e-015 -3.18055e-015 0.1927 -3.8059 -0.2383 0.0164657 0.00305133 -0.00087114 0.1091 -2.1688 -0.1362 1.59028e-015 -6.36111e-015 -0 0.6151 -8.0947 -3.564 1.76556e-031 3.18055e-015 -3.18055e-015 0.4882 -2.341 -0.6462 0.0144803 0.00366337 -0.00324376 0.3574 -1.7166 -0.4742 3.18055e-015 0 -1.59028e-015 1.4199 -1.8761 1.4221 1.76556e-031 3.18055e-015 -3.18055e-015 1.1472 -3.4929 2.6336 6.32425e-006 -4.47549e-006 7.15615e-006 0.8229 -2.3 1.6571 1.59028e-015 -3.18055e-015 -0 -9.412 3.9771 -0.7758 -40.0962 18.4314 -26.8012 -0.7531 -40.938 -7.10543e-015 -70.1038 39.8871 71.3075 0 -40.1986 7.10543e-015 32.5863 13.053 10.4972 1.42109e-014 -4.4182 9.239 -1.58965e-006 -1.68099e-006 2.51378e-008 9.4119 3.9773 -0.7758 73.4895 -52.6698 125.761 0.7532 -40.9383 0 72.0621 39.7219 -72.6056 7.10543e-015 -40.1986 0 -4.30533 21.5646 2.9162 -7.10543e-015 -4.4182 9.239 1.08059e-006 -7.48422e-007 2.66406e-006 
39.9791 38.1835 18.337 -179.997 75.0068 -2.60003e-006 -7.10543e-015 8.7983 -4.7612 0.0386982 9.33202 1.92887 0 8.0291 0.4195 -0.251095 18.66 3.93124 7.10543e-015 9.9351 -2.2114 -0.251096 18.66 3.93124 0 22.3885 -0.4656 -9.8822 3.50611 11.8464 -0.0001 12.643 3.4389 -7.4956 -20.4217 -8.99554 2.2603 21.606 7.4023 -10.8445 -18.3327 -35.5964 13.5163 -1.1332 -5.0146 82.079 11.8282 24.6747 -0.0995 -28.05 -0.2431 -81.2593 0.488209 -83.8697 0.0679 -23.3996 -0.1402 -7.0508 36.8713 12.0904 0.7932 -9.069 2.5189 3.18055e-015 -3.18055e-015 7.95139e-016 -0.8272 -3.3923 0.5977 3.18055e-015 6.36111e-015 -2.38542e-015 -0.5649 -2.3158 0.4082 3.18055e-015 0 1.19271e-015 0.9159 -9.2044 0.2193 3.18055e-015 -3.18055e-015 7.95139e-016 0.0117 -4.1944 -0.0248 -0.012752 0.0023183 7.65499e-005 0.0071 -2.3249 -0.0142 -1.04974e-005 7.51043e-007 6.32177e-006 0.6113 -8.7231 -2.0637 3.18055e-015 -3.18055e-015 7.95139e-016 -0.1927 -3.8059 -0.2383 -0.0161082 0.00301719 0.000860201 -0.1091 -2.1688 -0.1362 1.54487e-031 3.18055e-015 -2.78299e-015 -0.6151 -8.0947 -3.5641 3.18055e-015 -3.18055e-015 7.95139e-016 -0.4882 -2.341 -0.6462 -0.0126148 0.00313305 0.00283822 -0.3575 -1.7167 -0.4742 -1.59028e-015 -1.27222e-014 7.95139e-016 -1.42 -1.8761 1.4223 3.18055e-015 -3.18055e-015 7.95139e-016 -1.1471 -3.4929 2.6334 3.18055e-015 6.36111e-015 -2.38542e-015 -0.823 -2.3 1.6571 3.18055e-015 0 1.19271e-015 -2.2603 21.606 7.4023 5.62199 -7.55022 8.02526 -13.5187 -1.1334 -5.0155 -77.2431 -23.4982 -21.8587 0.0994 -28.0499 -0.2431 52.0233 -37.5548 30.4374 -0.0679 -23.3996 -0.1402 28.242 4.01771 -42.7403 -0.793199 -9.0691 2.5189 7.95139e-015 1.27222e-014 3.4191e-014 0.827199 -3.3923 0.5977 6.45605e-006 4.66927e-006 7.04849e-006 0.565 -2.3158 0.4082 6.36111e-015 -6.36111e-015 -0 -0.915999 -9.2044 0.2193 7.95139e-015 1.27222e-014 3.4191e-014 -0.0117 -4.1944 -0.0248 0.0129679 0.00231976 -8.63108e-005 -0.0071 -2.3249 -0.0142 -1.59028e-015 0 3.18055e-015 -0.6113 -8.7231 -2.0637 7.95139e-015 1.27222e-014 3.4191e-014 0.1927 -3.8059 -0.2383 0.0163396 0.00304159 -0.000874774 0.1091 -2.1688 -0.1362 4.77083e-015 -3.18055e-015 -8.74653e-015 0.6151 -8.0947 -3.564 7.95139e-015 1.27222e-014 3.4191e-014 0.4882 -2.341 -0.6462 0.0146918 0.00370753 -0.00328815 0.3574 -1.7166 -0.4742 -3.18055e-015 -1.27222e-014 -7.95139e-016 1.4199 -1.8761 1.4221 7.95139e-015 1.27222e-014 3.4191e-014 1.1472 -3.4929 2.6336 6.45605e-006 4.66927e-006 7.04849e-006 0.822899 -2.3 1.6571 6.36111e-015 -6.36111e-015 -0 -9.412 3.9771 -0.7758 -40.7475 18.1916 -27.4619 -0.7531 -40.938 1.42109e-014 -70.1034 39.8834 71.293 0 -40.1986 0 31.723 13.5001 11.3302 2.84217e-014 -4.4182 9.239 -7.75201e-006 1.04049e-006 5.08489e-008 9.4119 3.9773 -0.7758 73.8281 -52.6985 126.036 0.7532 -40.9383 7.10543e-015 72.0549 39.7208 -72.5983 -7.10543e-015 -40.1986 7.10543e-015 -4.30375 21.5692 2.91387 0 -4.4182 9.239 2.73412e-006 9.76046e-006 2.85667e-006 
39.9781 38.1845 18.3369 -179.997 75.0068 -2.03845e-007 7.10543e-015 8.7983 -4.7612 0.0321691 9.34641 1.92322 -7.10543e-015 8.0291 0.4195 -0.264004 18.6885 3.92106 0 9.9351 -2.2114 -0.264005 18.6885 3.92107 0 22.3885 -0.4656 -9.86248 3.51886 11.7876 -0.0001 12.643 3.4389 -7.31797 -20.219 -8.93285 2.2603 21.606 7.4023 -10.2003 -18.8738 -35.6989 13.5163 -1.1332 -5.0146 82.079 11.8282 24.6747 -0.0995 -28.05 -0.2431 -81.7582 0.472558 -83.8959 0.0679 -23.3996 -0.1402 -6.6879 37.0286 12.5671 0.7932 -9.069 2.5189 -1.59028e-015 -3.18055e-015 -6.36111e-015 -0.8272 -3.3923 0.5977 -3.18055e-015 -3.18055e-015 -4.77083e-015 -0.5649 -2.3158 0.4082 0 0 -2.38542e-015 0.9159 -9.2044 0.2193 -1.59028e-015 -3.18055e-015 -6.36111e-015 0.0117 -4.1944 -0.0248 -0.0128122 0.00232893 8.01238e-005 0.0071 -2.3249 -0.0142 -1.59028e-015 -3.18055e-015 -3.97569e-015 0.6113 -8.7231 -2.0637 -1.59028e-015 -3.18055e-015 -6.36111e-015 -0.1927 -3.8059 -0.2383 -0.0160444 0.00301345 0.000858036 -0.1091 -2.1688 -0.1362 -1.59028e-015 -3.18055e-015 3.97569e-015 -0.6151 -8.0947 -3.5641 -1.59028e-015 -3.18055e-015 -6.36111e-015 -0.4882 -2.341 -0.6462 -0.0125946 0.00313345 0.00282866 -0.3575 -1.7167 -0.4742 -3.18055e-015 -3.18055e-015 3.18055e-015 -1.42 -1.8761 1.4223 -1.59028e-015 -3.18055e-015 -6.36111e-015 -1.1471 -3.4929 2.6334 -3.18055e-015 -3.18055e-015 -4.77083e-015 -0.823 -2.3 1.6571 0 0 -2.38542e-015 -2.2603 21.606 7.4023 5.07041 -8.1386 7.74875 -13.5187 -1.1334 -5.0155 -77.2432 -23.4982 -21.8587 0.0994 -28.0499 -0.2431 52.331 -37.6704 30.639 -0.0679 -23.3996 -0.1402 27.9145 3.55289 -43.0675 -0.7932 -9.0691 2.5189 -3.58784e-006 -7.61745e-007 -8.36519e-006 0.8272 -3.3923 0.5977 8.06499e-006 -5.71438e-007 6.24198e-006 0.565 -2.3158 0.4082 1.49339e-005 1.13876e-005 5.15993e-006 -0.916 -9.2044 0.2193 -3.58784e-006 -7.61745e-007 -8.36519e-006 -0.0117 -4.1944 -0.0248 0.0130147 0.00232459 -7.62937e-005 -0.0071 -2.3249 -0.0142 1.3955e-005 1.09959e-005 5.35307e-006 -0.6113 -8.7231 -2.0637 -3.58784e-006 -7.61745e-007 -8.36519e-006 0.1927 -3.8059 -0.2383 0.0164088 0.00303926 -0.000867123 0.1091 -2.1688 -0.1362 9.5769e-006 1.81264e-005 -7.8062e-006 0.6151 -8.0947 -3.564 -3.58784e-006 -7.61745e-007 -8.36519e-006 0.4882 -2.341 -0.6462 0.0144665 0.00364475 -0.00323188 0.3574 -1.7166 -0.4742 4.04235e-006 2.69668e-006 -3.54921e-006 1.4199 -1.8761 1.4221 -3.58784e-006 -7.61745e-007 -8.36519e-006 1.1472 -3.4929 2.6336 8.06499e-006 -5.71438e-007 6.24198e-006 0.8229 -2.3 1.6571 1.49339e-005 1.13876e-005 5.15993e-006 -9.412 3.9771 -0.7758 -41.3357 17.9823 -28.059 -0.7531 -40.938 7.10543e-015 -70.103 39.8798 71.28 -7.10543e-015 -40.1986 0 30.9385 13.8917 12.0882 0 -4.4182 9.239 8.74653e-015 0 3.18055e-015 9.4119 3.9773 -0.7758 74.133 -52.7236 126.283 0.7532 -40.9383 0 72.0481 39.7197 -72.5915 0 -40.1986 0 -4.30234 21.5734 2.91172 0 -4.4182 9.23901 -1.64326e-006 3.0606e-007 -1.90994e-007 
